PathFileType	4	(X/Y/Z)	C:/Users/opensim2020/Desktop/walking_exp_matlab/subject03_walking10_straight_04.trc	
DataRate	CameraRate	NumFrames	NumMarkers	Units	OrigDataRate	OrigDataStartFrame	OrigNumFrames	
100.00	100.00	4	45	mm	100.00	3824	317	
Frame#	Time	LFHD			RFHD			LBHD			RBHD			C7			T10			CLAV			STRN			RBAK			LSHO			LUPA			LELB			LFRM			LWRA			LWRB			LFIN			RSHO			RUPA			RELB			RFRM			RWRA			RWRB			RFIN			LASI			RASI			LPSI			RPSI			LTHI			LKNE			LTIB			LANK			LHEE			LTOE			RTHI			RKNE			RTIB			RANK			RHEE			RTOE			*39			*40			*41			*42			*43			*44			
		X1	Y1	Z1	X2	Y2	Z2	X3	Y3	Z3	X4	Y4	Z4	X5	Y5	Z5	X6	Y6	Z6	X7	Y7	Z7	X8	Y8	Z8	X9	Y9	Z9	X10	Y10	Z10	X11	Y11	Z11	X12	Y12	Z12	X13	Y13	Z13	X14	Y14	Z14	X15	Y15	Z15	X16	Y16	Z16	X17	Y17	Z17	X18	Y18	Z18	X19	Y19	Z19	X20	Y20	Z20	X21	Y21	Z21	X22	Y22	Z22	X23	Y23	Z23	X24	Y24	Z24	X25	Y25	Z25	X26	Y26	Z26	X27	Y27	Z27	X28	Y28	Z28	X29	Y29	Z29	X30	Y30	Z30	X31	Y31	Z31	X32	Y32	Z32	X33	Y33	Z33	X34	Y34	Z34	X35	Y35	Z35	X36	Y36	Z36	X37	Y37	Z37	X38	Y38	Z38	X39	Y39	Z39	X40	Y40	Z40	X41	Y41	Z41	X42	Y42	Z42	X43	Y43	Z43	X44	Y44	Z44	X45	Y45	Z45	

1	0.000	-937.37885	1010.23792	1614.82520	-1070.26514	1011.32385	1620.60059	-941.62103	1137.12952	1567.67078	-1072.23083	1133.27454	1573.09106	-1011.86212	1168.38232	1416.43823	-1020.06403	1214.06580	1104.33923	-999.82697	1047.27612	1336.19116	-995.67975	1014.11743	1169.36389	-1123.67590	1211.36438	1247.92151	-848.61328	1110.01465	1373.10181	-779.56665	1149.43469	1177.98242	-765.32843	1155.35107	1055.19165	-761.64697	1125.26147	929.15491	-789.91425	1093.31384	814.42535	-745.50977	1127.13562	816.10358	-750.36493	1101.27075	736.19580	-1161.16675	1067.63293	1364.50391	-1242.64954	1018.98169	1152.89136	-1257.60840	975.68634	1049.71924	-1258.08655	921.13788	924.49933	-1218.48914	871.64349	840.31189	-1266.63123	892.20966	828.66925	-1254.39148	849.98193	768.66193	-893.93365	1051.75208	940.69263	-1130.07080	1042.61523	936.45685	-947.04639	1213.19141	956.69690	-1096.92236	1204.55273	968.51630	-841.02643	1034.37573	644.41187	-873.98163	971.09204	476.93341	-878.49585	1023.41034	286.29587	-920.40527	1047.15320	78.11166	-962.23767	1085.41943	42.02069	-935.18713	902.32550	43.99251	-1164.62402	1122.59778	641.64764	-1127.21558	1131.06909	462.10950	-1125.89832	1202.34534	283.30850	-1073.18030	1260.03735	74.93661	-1021.70428	1305.32166	47.32169	-1063.73926	1120.77844	30.42886	-986.58264	1093.99951	1675.02844															 
2	0.010	-936.83337	1003.72998	1614.37488	-1069.74402	1004.73651	1620.12012	-941.15387	1130.50806	1566.90173	-1071.80957	1126.57971	1572.32898	-1011.47772	1161.54529	1415.99548	-1019.72394	1207.67346	1103.95105	-999.33295	1040.49719	1335.58545	-995.25769	1007.56519	1168.73657	-1123.39087	1204.67432	1247.64209	-848.15674	1103.35413	1372.51245	-779.86981	1143.57617	1177.29492	-766.11389	1150.18005	1054.49976	-762.85370	1120.29724	928.35095	-791.88031	1089.15698	813.60858	-747.24146	1122.29688	815.25049	-752.26355	1096.54578	735.38470	-1160.70422	1060.71765	1364.06738	-1242.08899	1011.47723	1152.55554	-1256.81433	967.67059	1049.62769	-1256.33289	911.67719	925.05817	-1216.12805	861.34045	841.84418	-1263.98328	881.62006	829.61078	-1251.11340	838.58850	770.19202	-893.73938	1045.16321	940.10828	-1129.84814	1036.48889	935.85901	-946.74634	1206.82349	956.27625	-1096.66516	1198.31299	968.11481	-840.97314	1028.50647	643.55890	-875.35657	964.16901	476.64316	-879.04865	1009.70856	284.77100	-920.23065	1023.85284	75.54457	-961.77161	1061.97461	38.30686	-935.86877	878.79443	45.01972	-1164.47107	1117.89673	641.24164	-1127.18396	1127.52466	461.79956	-1125.90735	1200.10352	283.48096	-1073.29614	1259.63306	75.53577	-1021.70642	1305.17175	48.23766	-1063.78284	1120.69666	30.39285	-986.13751	1087.58167	1674.32764															 
3	0.020	-936.37000	997.12396	1613.86804	-1069.27820	998.16492	1619.59277	-940.64117	1123.95996	1566.11963	-1071.33862	1119.85400	1571.52393	-1010.96393	1154.62134	1415.50586	-1019.33716	1201.25671	1103.51917	-998.80640	1033.66296	1334.99902	-994.77869	1000.89478	1168.08923	-1122.97498	1197.99353	1247.29797	-847.62158	1096.57654	1371.88184	-780.06848	1137.51306	1176.55164	-766.92450	1144.70251	1053.70923	-764.05591	1115.16223	927.50159	-792.93536	1083.18237	812.93750	-748.98279	1117.42932	814.30670	-754.22693	1092.01868	734.47681	-1160.15076	1053.76868	1363.41833	-1241.46106	1004.08167	1152.09973	-1255.88696	959.81030	1049.37976	-1254.43994	902.50012	925.47919	-1213.37512	851.38049	843.19513	-1261.28259	871.25281	830.29382	-1247.83301	827.50586	771.65662	-893.62958	1038.71423	939.41321	-1129.56238	1030.22278	935.21808	-946.37604	1200.32031	955.79962	-1096.32593	1191.99475	967.65448	-840.78784	1022.47522	642.58337	-876.77185	957.61292	476.21152	-879.62219	996.44952	283.42163	-919.76373	1002.08331	73.33279	-961.16760	1039.12256	35.30936	-936.14063	855.95087	46.12706	-1164.41101	1113.10913	640.89276	-1127.17078	1123.82251	461.44910	-1125.78516	1197.96375	283.66489	-1073.19263	1259.30103	76.25256	-1021.68219	1304.97424	49.18023	-1063.73303	1120.66406	30.33650	-985.38977	1081.01880	1673.52124															 
4	0.030	-935.88666	990.45923	1613.32983	-1068.76648	991.49219	1619.04309	-940.12988	1117.23315	1565.31250	-1070.82324	1113.10437	1570.70496	-1010.45984	1147.72473	1414.97949	-1018.89545	1194.74182	1103.05212	-998.28674	1026.76099	1334.26587	-994.32153	994.04736	1167.38647	-1122.50024	1191.32471	1246.93188	-847.03583	1089.67529	1371.23206	-780.29565	1131.14783	1175.75586	-767.73059	1138.95691	1052.83337	-765.25153	1109.89331	926.56116	-794.95587	1078.87134	811.95581	-750.75757	1112.58533	813.31891	-756.38898	1087.21167	733.33655	-1159.60449	1046.82629	1362.74548	-1240.77319	996.83362	1151.55884	-1254.88245	952.12677	1049.05933	-1252.50562	893.51630	925.79724	-1210.59924	841.67700	844.39777	-1258.50464	861.24237	830.90936	-1244.40002	816.88123	772.97968	-893.30212	1031.90137	938.59338	-1129.24817	1023.91919	934.53271	-945.97223	1193.75183	955.26581	-1095.95422	1185.61560	967.18542	-840.63666	1016.46838	641.57172	-878.07343	951.23047	475.68094	-880.07813	983.66254	282.18182	-919.08319	981.11652	71.87439	-960.72455	1016.93030	32.99222	-936.04694	833.96606	47.57550	-1164.27942	1108.20898	640.49402	-1127.15759	1120.16980	461.17944	-1125.69006	1195.74585	283.91101	-1073.15271	1258.97412	77.06285	-1021.64685	1304.82385	50.26694	-1063.74658	1120.60559	30.34081	-984.86615	1074.49084	1672.72754															 
